<?xml version="1.0" encoding="UTF-8" standalone="no"?>
<!DOCTYPE svg PUBLIC "-//W3C//DTD SVG 1.1//EN" "http://www.w3.org/Graphics/SVG/1.1/DTD/svg11.dtd">
<svg width="100%" height="100%" viewBox="0 0 3681 1000" version="1.1" xmlns="http://www.w3.org/2000/svg" xmlns:xlink="http://www.w3.org/1999/xlink" xml:space="preserve" xmlns:serif="http://www.serif.com/" style="fill-rule:evenodd;clip-rule:evenodd;stroke-linejoin:round;stroke-miterlimit:1.41421;">
    <g transform="matrix(2,0,0,2,0,0)">
        <g transform="matrix(1,0,0,1,-724.778,-1555.28)">
            <g transform="matrix(0.61237,0,0,0.61237,833.881,1429.92)">
                <path d="M2183.29,980.329C2192.47,983.486 2203.02,985.996 2214.93,987.862C2226.83,989.727 2237.67,990.659 2247.42,990.659C2258.61,990.659 2267.65,990.157 2274.54,989.153C2281.42,988.148 2286.73,986.57 2290.46,984.418C2294.19,982.266 2296.63,979.397 2297.78,975.81C2298.93,972.223 2299.5,967.704 2299.5,962.252L2299.5,958.378C2299.5,944.892 2292.62,937.718 2278.84,936.857L2214.28,932.553C2200.51,931.692 2190.03,927.747 2182.86,920.717C2175.69,913.686 2172.1,904.433 2172.1,892.955L2172.1,884.346C2172.1,871.147 2178.55,859.669 2191.47,849.913C2186.59,844.174 2183.07,837.072 2180.92,828.608C2178.77,820.143 2177.69,809.884 2177.69,797.833L2177.69,788.364C2177.69,768.565 2183.79,752.424 2195.99,739.942C2208.18,727.46 2226.76,721.219 2251.73,721.219C2258.33,721.219 2264.49,721.721 2270.23,722.725C2275.97,723.73 2281.28,725.093 2286.16,726.814L2353.3,725.953L2353.3,758.235L2316.72,756.943C2319.88,761.534 2322.1,766.699 2323.39,772.438C2324.68,778.177 2325.33,783.916 2325.33,789.655L2325.33,799.124C2325.33,809.167 2323.75,818.493 2320.59,827.101C2317.44,835.709 2312.7,843.098 2306.39,849.268C2300.08,855.437 2292.4,860.243 2283.36,863.686C2274.32,867.13 2263.78,868.851 2251.73,868.851C2236.8,868.851 2224.61,867.417 2215.14,864.547C2208.83,869.999 2205.67,875.738 2205.67,881.764L2205.67,884.346C2205.67,888.364 2207.11,891.664 2209.97,894.246C2212.85,896.829 2218.44,898.407 2226.76,898.981L2290.89,903.715C2304.09,904.863 2314.78,909.741 2322.96,918.349C2331.14,926.958 2335.23,938.005 2335.23,951.491L2335.23,967.417C2335.23,976.025 2334.01,983.701 2331.57,990.444C2329.13,997.187 2324.68,1002.78 2318.22,1007.23C2311.77,1011.68 2302.87,1015.12 2291.54,1017.56C2280.2,1020 2265.5,1021.22 2247.42,1021.22C2239.1,1021.22 2229.13,1020.5 2217.51,1019.07C2205.89,1017.63 2194.91,1015.77 2184.58,1013.47L2183.29,980.329ZM1274.54,942.301L1237.86,942.301L1237.86,642.301L1274.54,642.301L1274.54,759.755C1282.02,749.11 1290.37,740.91 1299.57,735.156C1308.78,729.402 1318.85,726.525 1329.78,726.525C1348.19,726.525 1362.36,732.711 1372.29,745.082C1382.21,757.453 1387.18,775.291 1387.18,798.594L1387.18,942.301L1350.5,942.301L1350.5,803.773C1350.5,787.949 1347.91,776.801 1342.73,770.328C1337.55,763.854 1330.79,760.618 1322.44,760.618C1314.1,760.618 1305.62,763.783 1296.98,770.112C1288.35,776.441 1280.87,785.072 1274.54,796.005L1274.54,942.301ZM1486.43,942.301L1449.75,942.301L1449.75,731.704L1484.28,731.704L1484.28,763.207C1491.76,751.411 1500.39,742.349 1510.17,736.019C1519.95,729.69 1530.45,726.525 1541.67,726.525C1560.09,726.525 1574.26,732.711 1584.18,745.082C1594.11,757.453 1599.07,775.291 1599.07,798.594L1599.07,942.301L1562.39,942.301L1562.39,803.773C1562.39,788.237 1559.8,777.161 1554.62,770.543C1549.44,763.926 1542.68,760.618 1534.34,760.618C1525.99,760.618 1517.51,763.783 1508.88,770.112C1500.25,776.441 1492.76,785.072 1486.43,796.005L1486.43,942.301ZM2435.8,942.301L2399.13,942.301L2399.13,731.777L2435.8,731.777L2435.8,942.301ZM1910.65,942.301L1873.97,942.301L1873.97,642.272L1910.65,642.272L1910.65,942.301ZM1139.47,942.2C1112.42,942.2 1092.64,935.511 1080.13,922.133C1067.61,908.755 1061.36,889.263 1061.36,863.658L1061.36,799.788C1061.36,774.471 1067.61,755.051 1080.13,741.529C1092.64,728.007 1112.42,721.246 1139.47,721.246C1146.95,721.246 1153.49,721.606 1159.1,722.325C1164.71,723.044 1172.27,724.123 1181.76,725.562L1180.9,757.928C1173.42,756.489 1166.73,755.411 1160.83,754.691C1154.93,753.972 1147.81,753.612 1139.47,753.612C1125.66,753.612 1115.3,757.353 1108.4,764.833C1101.49,772.313 1098.04,782.958 1098.04,796.768L1098.04,866.247C1098.04,880.92 1101.71,891.853 1109.04,899.045C1116.38,906.238 1126.52,909.834 1139.47,909.834C1147.81,909.834 1154.93,909.474 1160.83,908.755C1166.73,908.036 1173.42,906.957 1180.9,905.518L1181.76,937.885C1172.27,939.323 1164.71,940.402 1159.1,941.121C1153.49,941.841 1146.95,942.2 1139.47,942.2ZM2537.69,842.944L2537.69,868.405C2537.69,883.078 2541.15,893.651 2548.05,900.124C2554.96,906.597 2566.03,909.834 2581.28,909.834C2585.88,909.834 2590.92,909.546 2596.39,908.971C2601.85,908.395 2607.39,907.748 2613,907.029C2618.61,906.31 2623.93,905.518 2628.97,904.655C2634,903.792 2638.39,902.929 2642.13,902.066L2640.4,934.432C2630.91,936.159 2620.77,937.885 2609.98,939.611C2599.19,941.337 2589.62,942.2 2581.28,942.2C2552.22,942.2 2531.58,935.943 2519.35,923.428C2507.12,910.913 2501.01,891.853 2501.01,866.247L2501.01,798.494C2501.01,773.464 2506.98,754.332 2518.92,741.097C2530.86,727.863 2549.35,721.246 2574.38,721.246C2598.83,721.246 2617.32,727.791 2629.83,740.882C2642.35,753.972 2648.6,773.176 2648.6,798.494L2648.6,842.944L2537.69,842.944ZM2730.6,836.039C2717.65,831.148 2707.94,824.459 2701.47,815.972C2694.99,807.484 2691.76,797.775 2691.76,786.842L2691.76,781.232C2691.76,761.38 2697.3,746.42 2708.37,736.35C2719.45,726.281 2738.22,721.246 2764.69,721.246C2771.31,721.246 2778.14,721.606 2785.19,722.325C2792.24,723.044 2800.51,724.411 2810,726.425L2809.14,757.496C2793.89,754.044 2779.65,752.318 2766.42,752.318C2751.17,752.318 2740.95,754.404 2735.78,758.575C2730.6,762.747 2728.01,769.148 2728.01,777.779L2728.01,781.232C2728.01,786.986 2729.45,791.445 2732.32,794.61C2735.2,797.775 2740.38,800.939 2747.86,804.104L2788.43,820.934C2801.08,826.113 2810.72,833.162 2817.34,842.08C2823.96,850.999 2827.26,860.781 2827.26,871.426L2827.26,881.783C2827.26,901.635 2821.58,916.667 2810.22,926.88C2798.85,937.094 2779.51,942.2 2752.18,942.2C2735.78,942.2 2717.51,939.899 2697.37,935.296L2698.23,902.929C2716.64,907.532 2734.62,909.834 2752.18,909.834C2767.71,909.834 2778.07,907.892 2783.25,904.008C2788.43,900.124 2791.01,893.867 2791.01,885.236L2791.01,879.194C2791.01,872.577 2789.58,867.11 2786.7,862.795C2783.82,858.479 2779.08,855.027 2772.46,852.438L2730.6,836.039ZM2125.13,863.658C2125.13,888.113 2119.09,907.317 2107.01,921.27C2094.92,935.224 2075.65,942.2 2049.18,942.2C2022.71,942.2 2003.43,935.224 1991.35,921.27C1979.27,907.317 1973.23,888.113 1973.23,863.658L1973.23,799.788C1973.23,775.334 1979.27,756.13 1991.35,742.176C2003.43,728.223 2022.71,721.246 2049.18,721.246C2075.65,721.246 2094.92,728.223 2107.01,742.176C2119.09,756.13 2125.13,775.334 2125.13,799.788L2125.13,863.658ZM896.504,842.944L896.504,868.405C896.504,883.078 899.957,893.651 906.862,900.124C913.766,906.597 924.843,909.834 940.091,909.834C944.694,909.834 949.729,909.546 955.195,908.971C960.662,908.395 966.2,907.748 971.81,907.029C977.42,906.31 982.743,905.518 987.778,904.655C992.812,903.792 997.2,902.929 1000.94,902.066L999.214,934.432C989.719,936.159 979.578,937.885 968.789,939.611C958,941.337 948.434,942.2 940.091,942.2C911.033,942.2 890.391,935.943 878.164,923.428C865.936,910.913 859.823,891.853 859.823,866.247L859.823,798.494C859.823,773.464 865.792,754.332 877.732,741.097C889.672,727.863 908.156,721.246 933.186,721.246C957.641,721.246 976.126,727.791 988.641,740.882C1001.16,753.972 1007.41,773.176 1007.41,798.494L1007.41,842.944L896.504,842.944ZM1811.39,863.658C1811.39,888.113 1805.35,907.317 1793.27,921.27C1781.18,935.224 1761.91,942.2 1735.44,942.2C1708.97,942.2 1689.7,935.224 1677.61,921.27C1665.53,907.317 1659.49,888.113 1659.49,863.658L1659.49,799.788C1659.49,775.334 1665.53,756.13 1677.61,742.176C1689.7,728.223 1708.97,721.246 1735.44,721.246C1761.91,721.246 1781.18,728.223 1793.27,742.176C1805.35,756.13 1811.39,775.334 1811.39,799.788L1811.39,863.658ZM817.099,939.967C809.962,941.408 802.05,942.128 793.364,942.128C767.471,942.128 748.77,935.583 737.262,922.493C725.754,909.402 720,889.767 720,863.586L720,642.2L756.682,642.2L756.682,754.404C764.162,743.759 772.721,735.559 782.359,729.805C791.997,724.051 802.282,721.174 813.215,721.174C814.532,721.174 815.826,721.207 817.099,721.274L817.099,757.078C813.422,755.007 809.251,753.972 804.584,753.972C796.241,753.972 787.754,757.137 779.123,763.466C770.491,769.796 763.011,778.427 756.682,789.359L756.682,867.902C756.682,882.287 759.99,893.147 766.608,900.484C773.225,907.82 782.143,911.488 793.364,911.488C803.078,911.488 810.989,909.449 817.099,905.369L817.099,939.967ZM2088.45,796.336C2088.45,781.663 2085,770.587 2078.09,763.107C2071.19,755.626 2061.55,751.886 2049.18,751.886C2036.81,751.886 2027.17,755.698 2020.26,763.322C2013.36,770.946 2009.91,782.095 2009.91,796.768L2009.91,866.679C2009.91,881.352 2013.36,892.5 2020.26,900.124C2027.17,907.748 2036.81,911.56 2049.18,911.56C2061.55,911.56 2071.19,907.748 2078.09,900.124C2085,892.5 2088.45,881.352 2088.45,866.679L2088.45,796.336ZM1774.71,796.336C1774.71,781.663 1771.26,770.587 1764.35,763.107C1757.45,755.626 1747.81,751.886 1735.44,751.886C1723.07,751.886 1713.43,755.698 1706.53,763.322C1699.62,770.946 1696.17,782.095 1696.17,796.768L1696.17,866.679C1696.17,881.352 1699.62,892.5 1706.53,900.124C1713.43,907.748 1723.07,911.56 1735.44,911.56C1747.81,911.56 1757.45,907.748 1764.35,900.124C1771.26,892.5 1774.71,881.352 1774.71,866.679L1774.71,796.336ZM2214.28,801.707C2214.28,809.454 2214.78,815.695 2215.79,820.43C2216.79,825.164 2218.58,828.823 2221.17,831.405C2223.75,833.988 2227.26,835.781 2231.71,836.785C2236.16,837.79 2241.97,838.292 2249.14,838.292C2262.63,838.292 2272.6,835.136 2279.06,828.823C2285.51,822.51 2288.74,813.471 2288.74,801.707L2288.74,788.794C2288.74,782.194 2288.24,776.312 2287.24,771.147C2286.23,765.982 2285.01,761.391 2283.58,757.374C2280.42,755.939 2275.9,754.648 2270.02,753.5C2264.14,752.352 2258.04,751.778 2251.73,751.778C2239.67,751.778 2230.42,754.791 2223.96,760.817C2217.51,766.843 2214.28,775.738 2214.28,787.503L2214.28,801.707ZM896.504,813.598L970.731,813.598L970.731,794.178C970.731,779.793 967.279,769.148 960.374,762.243C953.469,755.339 944.407,751.886 933.186,751.886C922.254,751.886 913.407,755.339 906.646,762.243C899.885,769.148 896.504,779.362 896.504,792.884L896.504,813.598ZM2537.69,813.598L2611.92,813.598L2611.92,794.178C2611.92,779.793 2608.47,769.148 2601.56,762.243C2594.66,755.339 2585.6,751.886 2574.38,751.886C2563.44,751.886 2554.6,755.339 2547.84,762.243C2541.07,769.148 2537.69,779.362 2537.69,792.884L2537.69,813.598ZM2417.47,642.301C2430.69,642.301 2441.43,653.04 2441.43,666.268C2441.43,679.495 2430.69,690.234 2417.47,690.234C2404.24,690.234 2393.5,679.495 2393.5,666.268C2393.5,653.04 2404.24,642.301 2417.47,642.301ZM1430.07,294.199L1430.07,316.952C1430.07,316.952 1440.18,301.495 1456.4,291.965C1473.44,281.955 1490.5,283.887 1490.5,283.887L1490.5,319.628C1490.5,319.628 1476.71,310.587 1456.47,323.331C1438.14,334.873 1430.07,352.033 1430.07,352.033L1430.07,504.723L1393.38,504.723L1393.38,294.199L1430.07,294.199ZM1983.46,294.199L1983.46,316.952C1983.46,316.952 1993.58,301.495 2009.8,291.965C2026.84,281.955 2043.89,283.887 2043.89,283.887L2043.89,319.628C2043.89,319.628 2030.11,310.587 2009.87,323.331C1991.54,334.873 1983.46,352.033 1983.46,352.033L1983.46,504.723L1946.77,504.723L1946.77,294.199L1983.46,294.199ZM756.691,316.949C764.173,306.302 772.734,298.1 782.374,292.345C792.014,286.589 802.302,283.712 813.237,283.712C831.079,283.712 844.892,289.827 854.676,302.057C864.46,314.287 869.353,332.632 869.353,357.093L869.353,425.294C869.353,451.481 863.309,471.266 851.223,484.647C839.137,498.028 819.856,504.719 793.381,504.719C767.482,504.719 748.777,498.172 737.266,485.078C725.755,471.985 720,452.345 720,426.158L720,204.719L756.691,204.719L756.691,316.949ZM1680.86,204.719L1680.86,426.158C1680.86,452.345 1675.11,471.985 1663.6,485.078C1652.09,498.172 1633.38,504.719 1607.48,504.719C1581.01,504.719 1561.73,498.028 1549.64,484.647C1537.55,471.266 1531.51,451.481 1531.51,425.294L1531.51,357.093C1531.51,332.632 1536.4,314.287 1546.19,302.057C1555.97,289.827 1569.78,283.712 1587.62,283.712C1598.56,283.712 1608.85,286.589 1618.49,292.345C1628.13,298.1 1636.69,306.302 1644.17,316.949L1644.17,204.719L1680.86,204.719ZM1140.72,502.539C1133.59,503.998 1125.67,504.719 1116.98,504.719C1091.08,504.719 1072.38,498.172 1060.87,485.078C1049.36,471.985 1043.6,452.345 1043.6,426.158L1043.6,204.719L1080.29,204.719L1080.29,316.949C1087.77,306.302 1096.33,298.1 1105.97,292.345C1115.61,286.589 1125.9,283.712 1136.84,283.712L1140.72,283.883L1140.72,319.673C1137.04,317.552 1132.87,316.517 1128.2,316.517C1119.86,316.517 1111.37,319.683 1102.74,326.014C1094.1,332.345 1086.62,340.978 1080.29,351.913L1080.29,430.474C1080.29,444.863 1083.6,455.726 1090.22,463.064C1096.84,470.402 1105.76,474.071 1116.98,474.071C1126.7,474.071 1134.61,472.032 1140.72,467.935L1140.72,502.539ZM970.702,504.719L934.033,504.719L934.033,294.195L970.702,294.195L970.702,504.719ZM1328.35,426.1C1328.35,450.546 1322.41,469.743 1310.53,483.692C1298.65,497.641 1279.7,504.615 1253.68,504.615C1227.65,504.615 1208.7,497.641 1196.82,483.692C1184.94,469.743 1179,450.546 1179,426.1L1179,362.252C1179,337.806 1184.94,318.609 1196.82,304.66C1208.7,290.712 1227.65,283.737 1253.68,283.737C1279.7,283.737 1298.65,290.712 1310.53,304.66C1322.41,318.609 1328.35,337.806 1328.35,362.252L1328.35,426.1ZM1779.95,405.393L1779.95,430.845C1779.95,445.513 1783.41,456.082 1790.31,462.553C1797.21,469.024 1808.28,472.26 1823.53,472.26C1828.13,472.26 1833.16,471.972 1838.62,471.397C1844.09,470.822 1849.63,470.175 1855.23,469.456C1860.84,468.737 1866.16,467.946 1871.2,467.083C1876.23,466.22 1880.62,465.357 1884.35,464.495L1882.63,496.85C1873.14,498.575 1863,500.301 1852.21,502.027C1841.43,503.752 1831.87,504.615 1823.53,504.615C1794.48,504.615 1773.84,498.36 1761.62,485.849C1749.4,473.338 1743.29,454.285 1743.29,428.688L1743.29,360.958C1743.29,335.937 1749.25,316.811 1761.19,303.582C1773.12,290.352 1791.6,283.737 1816.62,283.737C1841.07,283.737 1859.55,290.28 1872.06,303.366C1884.57,316.452 1890.83,335.649 1890.83,360.958L1890.83,405.393L1779.95,405.393ZM804.604,316.517C796.259,316.517 787.77,319.683 779.137,326.014C770.504,332.345 763.022,340.978 756.691,351.913L756.691,430.474C756.691,444.863 760,455.726 766.619,463.064C773.237,470.402 782.158,474.071 793.381,474.071C819.568,474.071 832.662,459.251 832.662,429.611L832.662,362.273C832.662,345.007 830.072,333.064 824.892,326.445C819.712,319.827 812.95,316.517 804.604,316.517ZM1596.26,316.517C1604.6,316.517 1613.09,319.683 1621.73,326.014C1630.36,332.345 1637.84,340.978 1644.17,351.913L1644.17,430.474C1644.17,444.863 1640.86,455.726 1634.24,463.064C1627.62,470.402 1618.7,474.071 1607.48,474.071C1581.3,474.071 1568.2,459.251 1568.2,429.611L1568.2,362.273C1568.2,345.007 1570.79,333.064 1575.97,326.445C1581.15,319.827 1587.91,316.517 1596.26,316.517ZM1292.29,358.801C1292.29,344.133 1288.89,333.061 1282.1,325.583C1275.32,318.106 1265.84,314.367 1253.68,314.367C1241.51,314.367 1232.04,318.177 1225.25,325.799C1218.46,333.42 1215.07,344.565 1215.07,359.233L1215.07,429.12C1215.07,443.787 1218.46,454.932 1225.25,462.553C1232.04,470.175 1241.51,473.985 1253.68,473.985C1265.84,473.985 1275.32,470.175 1282.1,462.553C1288.89,454.932 1292.29,443.787 1292.29,429.12L1292.29,358.801ZM1779.95,376.057L1854.16,376.057L1854.16,356.644C1854.16,342.264 1850.7,331.623 1843.8,324.72C1836.9,317.818 1827.84,314.367 1816.62,314.367C1805.69,314.367 1796.85,317.818 1790.09,324.72C1783.33,331.623 1779.95,341.833 1779.95,355.35L1779.95,376.057ZM952.367,204.719C965.595,204.719 976.334,215.458 976.334,228.686C976.334,241.913 965.595,252.652 952.367,252.652C939.14,252.652 928.401,241.913 928.401,228.686C928.401,215.458 939.14,204.719 952.367,204.719Z" style="fill:white;"/>
            </g>
            <g transform="matrix(1,0,0,1,-323.6,761.955)">
                <path d="M1508.38,1293.33L1088.38,1293.33C1066.3,1293.33 1048.38,1275.4 1048.38,1253.33L1048.38,833.326C1048.38,811.25 1066.3,793.327 1088.38,793.326L1508.38,793.326C1530.45,793.327 1548.38,811.25 1548.38,833.326L1548.38,1253.33C1548.38,1275.4 1530.46,1293.33 1508.38,1293.33ZM1489.52,815.781L1107.24,815.781C1087.14,815.783 1070.83,832.096 1070.83,852.188L1070.83,1234.46C1070.83,1254.56 1087.15,1270.87 1107.24,1270.87L1489.52,1270.87C1509.61,1270.87 1525.92,1254.56 1525.92,1234.46L1525.92,852.188C1525.92,832.096 1509.61,815.783 1489.52,815.781ZM1279.1,1126.13C1273.3,1124.37 1266.68,1121.84 1262.94,1118.58C1254.46,1111.2 1248.38,1100.13 1248.38,1085.36L1248.38,960.522L1279.1,960.522L1279.1,1023.79L1279.1,1023.79L1279.1,1043.5L1279.1,1043.51L1279.1,1087.8L1279.1,1087.86L1279.1,1126.13ZM1348.38,1086.21C1348.38,1093.67 1340.48,1100.65 1333.02,1100.65C1325.56,1100.65 1317.65,1093.67 1317.65,1086.21L1317.65,1059.17C1317.65,1051.71 1325.56,1044.73 1333.02,1044.73C1340.48,1044.73 1348.38,1051.71 1348.38,1059.17L1348.38,1086.21Z" style="fill:white;"/>
            </g>
        </g>
    </g>
</svg>
