<?xml version="1.0" encoding="UTF-8" standalone="no"?>
<!DOCTYPE svg PUBLIC "-//W3C//DTD SVG 1.1//EN" "http://www.w3.org/Graphics/SVG/1.1/DTD/svg11.dtd">
<svg width="100%" height="100%" viewBox="0 0 240 240" version="1.1" xmlns="http://www.w3.org/2000/svg" xmlns:xlink="http://www.w3.org/1999/xlink" xml:space="preserve" xmlns:serif="http://www.serif.com/" style="fill-rule:evenodd;clip-rule:evenodd;stroke-linejoin:round;stroke-miterlimit:1.41421;">
    <g transform="matrix(0.48,0,0,0.48,0,0)">
        <g transform="matrix(1,0,0,1,-724.778,-1555.28)">
            <g transform="matrix(1,0,0,1,-323.6,761.955)">
                <path d="M1508.38,1293.33L1088.38,1293.33C1066.3,1293.33 1048.38,1275.4 1048.38,1253.33L1048.38,833.326C1048.38,811.25 1066.3,793.327 1088.38,793.326L1508.38,793.326C1530.45,793.327 1548.38,811.25 1548.38,833.326L1548.38,1253.33C1548.38,1275.4 1530.46,1293.33 1508.38,1293.33Z"/>
            </g>
            <g transform="matrix(1,0,0,1,-323.6,761.955)">
                <path d="M1279.1,1126.13C1273.3,1124.37 1266.68,1121.84 1262.94,1118.58C1254.46,1111.2 1248.38,1100.13 1248.38,1085.36L1248.38,960.522L1279.1,960.522L1279.1,1023.79L1279.1,1023.79L1279.1,1043.5L1279.1,1043.51L1279.1,1087.8L1279.1,1087.86L1279.1,1126.13ZM1348.38,1086.21C1348.38,1093.67 1340.48,1100.65 1333.02,1100.65C1325.56,1100.65 1317.65,1093.67 1317.65,1086.21L1317.65,1059.17C1317.65,1051.71 1325.56,1044.73 1333.02,1044.73C1340.48,1044.73 1348.38,1051.71 1348.38,1059.17L1348.38,1086.21Z" style="fill:white;"/>
            </g>
        </g>
    </g>
</svg>
